<?xml version="1.0" encoding="utf-8"?>
<!-- Generator: Adobe Illustrator 24.2.1, SVG Export Plug-In . SVG Version: 6.00 Build 0)  -->
<svg version="1.1" id="レイヤー_1" xmlns="http://www.w3.org/2000/svg" xmlns:xlink="http://www.w3.org/1999/xlink" x="0px"
	 y="0px" width="104.91px" height="14.32px" viewBox="0 0 104.91 14.32" style="enable-background:new 0 0 104.91 14.32;"
	 xml:space="preserve">
<style type="text/css">
	.st0{fill:#FFFFFF;}
</style>
<g>
	<path class="st0" d="M1.33,0C0.97,0,0.64,0.14,0.39,0.39c-0.52,0.52-0.52,1.36,0,1.88l11.44,11.44c0.25,0.25,0.58,0.39,0.94,0.39
		c0.35,0,0.69-0.14,0.94-0.39L25.15,2.27c0.25-0.25,0.39-0.58,0.39-0.94s-0.14-0.69-0.39-0.94C24.9,0.14,24.56,0,24.21,0
		c-0.35,0-0.69,0.14-0.94,0.39L12.94,10.72l-0.17,0.17l-0.17-0.17L2.27,0.39C2.01,0.14,1.68,0,1.33,0z"/>
	<path class="st0" d="M98.31,0H87.9h-2.78h-1.07h-1.64h-0.1c-0.68,0-1.24,0.56-1.24,1.24v11.58c0,0.68,0.56,1.24,1.24,1.24h0.1h1.64
		h0.6h1.8h11.85c3.31,0,6.13-2.48,6.55-5.76l0.06-1.7c0-1.75-0.69-3.41-1.94-4.66C101.73,0.69,100.07,0,98.31,0z M102.34,7.45
		c0,2.22-1.81,4.03-4.03,4.03H86.46h-2.41h-0.16h-0.24v-0.24v-0.16v-8.1V2.82V2.57h0.24h0.16h3.85h10.41c2.22,0,4.03,1.81,4.03,4.03
		V7.45z"/>
	<path class="st0" d="M66.18,14.27c0,0,0.01,0,0.01,0C66.19,14.28,66.18,14.28,66.18,14.27z"/>
	<path class="st0" d="M79,2.27c0.25-0.25,0.39-0.58,0.39-0.94S79.25,0.64,79,0.39C78.75,0.14,78.42,0,78.07,0
		c-0.35,0-0.69,0.14-0.94,0.39L66.8,10.72l-0.17,0.17l-0.17-0.17L56.12,0.39C55.87,0.14,55.54,0,55.18,0
		c-0.35,0-0.69,0.14-0.94,0.39L43.89,10.75l-0.17,0.17l-0.17-0.17L33.19,0.39C32.94,0.14,32.6,0,32.25,0
		c-0.35,0-0.69,0.14-0.94,0.39L19.87,11.83c-0.52,0.52-0.52,1.36,0,1.88c0.25,0.25,0.58,0.39,0.94,0.39c0.35,0,0.69-0.14,0.94-0.39
		L32.08,3.38l0.17-0.17l0.17,0.17l10.33,10.33c0.25,0.25,0.58,0.39,0.94,0.39l0.02,0l0.03,0c0.36,0,0.69-0.14,0.94-0.39L55.01,3.38
		l0.17-0.17l0.17,0.17l10.33,10.33c0.25,0.25,0.58,0.39,0.94,0.39c0.35,0,0.69-0.14,0.94-0.39L79,2.27z"/>
	<path class="st0" d="M66.32,14.31c0.01,0,0.02,0,0.04,0.01C66.35,14.31,66.34,14.31,66.32,14.31z"/>
</g>
</svg>
