<svg viewBox="0 0 204.09 211.63" xmlns="http://www.w3.org/2000/svg"><path d="m11.56 201.78h20.18l-.51 9.14h-31.23v-49.68h11.56zm84.66.92c-1.15 0-1.88-.77-1.88-2.69v-25.28h-11.48v25.5c0 4.74.5 11.4 9.75 11.4a14 14 0 0 0 7.22-2.2l-.5-7.36a8.76 8.76 0 0 1 -3.11.63zm29.4-19.31h.44a15.8 15.8 0 0 1 7.63 1.93l.42.26.64-9.31s-4-2.82-11-2.82c-6.39 0-18.6 2.89-18.6 19.08s12.21 19.09 18.6 19.09c7 0 11-2.82 11-2.82l-.64-9.32s-.15.11-.42.27a15.92 15.92 0 0 1 -7.63 1.93h-.44c-4.09 0-9.05-2.11-9.05-9.16s4.96-9.13 9.05-9.13zm78 18.68a8.76 8.76 0 0 1 -3.11.63c-1.15 0-1.88-.77-1.88-2.69v-25.28h-11.51v25.5c0 4.74.51 11.4 9.75 11.4a14 14 0 0 0 7.22-2.2zm-115-31a6.76 6.76 0 1 0 -6.76-6.76 6.76 6.76 0 0 0 6.74 6.69zm104.38-.07a6.76 6.76 0 1 0 -6.76-6.76 6.76 6.76 0 0 0 6.76 6.76zm-27 2.44a18.54 18.54 0 0 0 -10.33 2.91v-15.11h-11.43v49.68h11.41v-25.92s2.91-2.49 5.71-2.49c3.32 0 4.69 1.63 4.69 5v23.37h11.49v-25.63c0-8.1-5.43-11.79-11.54-11.79zm-90.1 28.63.5 7.36a17.55 17.55 0 0 1 -8.3 2.2c-3.81 0-6.52-1.68-7.34-4.43a17.54 17.54 0 0 1 -10.51 4.43h.06c-.32 0-.66 0-1 0-5.12 0-10.61-2.62-10.61-10.2 0-.19 0-.38 0-.56.28-9.2 8.84-11.54 12.74-12.16a23.67 23.67 0 0 1 7.95.25c-.12-4.14-1.74-5.94-6.33-5.94h-.56a23.12 23.12 0 0 0 -4 .5 20.82 20.82 0 0 0 -7.15 3l-.11-2.17-.3-6.54c1.44-1.54 7.47-4.37 13.88-4.37 12.3 0 16.09 6.23 16.09 16.36v10.9a2 2 0 0 0 2 2.06 7 7 0 0 0 2.99-.69zm-16.55-6.25c-5.47-.77-9.1.79-9.1 4a3.26 3.26 0 0 0 3.54 3.33 9.32 9.32 0 0 0 5.56-2.34z"/><path d="m155.52 19.92a16.6 16.6 0 0 0 .25-2.92 17.45 17.45 0 0 0 -13.53-17 17.45 17.45 0 0 1 -16.62 12.1c-1.35 0-2.7.05-4.06.14a61.18 61.18 0 0 0 -44.5 23.76c-.38.5-.76 1-1.13 1.52q-1.67 2.31-3.12 4.77c-.08.14-.17.28-.25.43-.22.35-.43.72-.62 1.1a19.94 19.94 0 0 0 -2.33 9.39 20.15 20.15 0 0 0 20.15 20.17 36.2 36.2 0 0 1 .79-7.51 35.55 35.55 0 0 1 4.15-10.66 36.19 36.19 0 0 1 12.3-12.47l.72-.43a35.87 35.87 0 1 1 19 66.92 58.13 58.13 0 0 0 3.18-4.87c.4-.67.79-1.36 1.15-2a.08.08 0 0 1 0 0 20.17 20.17 0 0 0 -18.17-28.89 35.81 35.81 0 0 1 -17.17 30.53l-.73.43a35.86 35.86 0 1 1 -29.41-65c10.49-4.15 14-19.6 7.25-27.77a17.28 17.28 0 0 0 -9.3-5.66 17.47 17.47 0 0 1 -9.81 10.73 60.29 60.29 0 0 0 -11.52 6.27 61.27 61.27 0 0 0 59.16 106.62 61.26 61.26 0 0 0 54.17-109.7z" fill="#ff526c"/></svg>